<?xml version="1.0" encoding="UTF-8"?><svg id="Layer_2" xmlns="http://www.w3.org/2000/svg" viewBox="0 0 1000 384.8747"><g id="Components"><g id="_196b6d60-d8f9-4b44-a30a-574728e3011e_1"><path d="M0,118.8989h52.6947v115.4373h70.5569v40.8602H0V118.8989Z" style="fill:#d4af37;"/><path d="M177.9588,118.8989h52.6952v156.2975h-52.6952V118.8989Z" style="fill:#d4af37;"/><path d="M463.3167,118.8989l-66.0917,156.2975h-51.8016l-66.0917-156.2975h56.7136l37.2886,91.3228,38.1812-91.3228h51.8016Z" style="fill:#d4af37;"/><path d="M638.5983,235.4523v39.7441h-129.9508V118.8989h127.048v39.7441h-75.2469v18.3094h66.0917v37.9583h-66.0917v20.5416h78.1497Z" style="fill:#d4af37;"/><polygon points="765.6138 83.4226 703.9224 83.4226 768.2224 156.0991 792.8415 183.9254 823.6872 149.0613 765.6138 83.4226" style="fill:#d4af37;"/><polygon points="958.5139 83.4226 896.8225 83.4226 838.7491 149.0613 832.5225 156.0991 800.3725 192.4374 792.8415 200.9493 751.7345 247.4115 703.9224 301.4522 765.6138 301.4522 823.6872 235.8134 829.9138 228.7756 862.0638 192.4374 869.5948 183.9254 910.7018 137.4632 958.5139 83.4226" style="fill:#d4af37;"/><polygon points="971.1672 288.0898 900.5054 208.2227 895.7982 202.9023 886.5395 192.4374 971.1672 96.7849 988.9105 76.7302 1000 64.196 984.0439 64.196 958.514 64.196 922.6477 64.196 950.3337 32.7802 965.5549 9.6274 945.4671 27.6408 913.2518 64.196 906.7349 71.5908 916.1308 71.5908 958.514 71.5908 984.0439 71.5908 966.3006 91.6456 877.1258 192.4374 881.7293 197.6405 891.1006 208.2327 895.8078 213.5531 966.3006 293.2292 984.0439 313.2839 958.514 313.2839 896.8225 313.2839 892.2287 313.2839 889.0359 309.6753 849.9902 265.543 845.2831 260.2227 835.9117 249.6304 831.2182 244.3255 824.2697 252.1791 763.9025 320.6787 727.7321 361.7219 712.5109 384.8747 732.5987 366.8613 829.133 257.3223 831.2182 254.9655 838.7921 263.4884 777.2327 333.3408 762.0115 356.4937 782.0993 338.4803 843.4993 268.8087 884.1693 314.8146 887.362 318.4233 889.3575 320.6787 892.2287 320.6787 896.8225 320.6787 958.514 320.6787 984.0439 320.6787 1000 320.6787 988.9105 308.1445 971.1672 288.0898" style="fill:#d4af37;"/><polygon points="696.8814 375.2473 716.9693 357.2339 749.1845 320.6787 755.7014 313.2839 746.3056 313.2839 703.9223 313.2839 678.3925 313.2839 696.1358 293.2292 785.3105 192.4374 780.7071 187.2342 771.3357 176.642 766.6285 171.3216 696.1357 91.6456 678.3925 71.5908 703.9223 71.5908 765.6138 71.5908 770.2077 71.5908 773.4004 75.1994 812.4461 119.3317 817.1532 124.6521 826.5246 135.2443 831.2181 140.5492 838.1666 132.6956 898.5338 64.196 934.7042 23.1529 949.9254 0 929.8376 18.0134 833.3033 127.5524 831.2181 129.9092 823.7529 121.3997 885.3123 51.5472 900.5335 28.3944 880.4457 46.4078 819.0457 116.0793 778.2671 70.0601 775.0743 66.4514 773.0788 64.196 770.2077 64.196 765.6138 64.196 703.9223 64.196 678.3925 64.196 662.4363 64.196 673.5259 76.7302 691.2691 96.7849 761.9309 176.6521 766.6381 181.9724 775.8968 192.4374 691.2692 288.0898 673.5259 308.1445 662.4363 320.6787 678.3925 320.6787 703.9223 320.6787 739.7887 320.6787 712.1027 352.0945 696.8814 375.2473" style="fill:#d4af37;"/><polygon points="896.8226 301.4522 958.5139 301.4522 894.2139 228.7756 869.5948 200.9493 838.7491 235.8134 896.8226 301.4522" style="fill:#d4af37;"/></g></g></svg>